<?xml version="1.0" encoding="UTF-8"?>
<svg id="Layer_2" data-name="Layer 2" xmlns="http://www.w3.org/2000/svg" xmlns:xlink="http://www.w3.org/1999/xlink" viewBox="0 0 228.4 150.82">
  <defs>
    <style>
      .cls-1 {
        letter-spacing: -.03em;
      }

      .cls-2 {
        letter-spacing: -.02em;
      }

      .cls-3 {
        letter-spacing: -.02em;
      }

      .cls-4 {
        letter-spacing: -.04em;
      }

      .cls-5 {
        letter-spacing: -.03em;
      }

      .cls-6 {
        letter-spacing: -.03em;
      }

      .cls-7 {
        letter-spacing: -.03em;
      }

      .cls-8 {
        fill: #fff;
        font-family: CooperBlackStd-Italic, 'Cooper Std';
        font-size: 48px;
        font-style: italic;
      }

      .cls-9 {
        letter-spacing: -.02em;
      }

      .cls-10 {
        fill: url(#linear-gradient);
      }
    </style>
    <linearGradient id="linear-gradient" x1="75.23" y1="43.89" x2="153.17" y2="43.89" gradientUnits="userSpaceOnUse">
      <stop offset="0" stop-color="#393fde"/>
      <stop offset=".11" stop-color="#3f3fdf"/>
      <stop offset=".26" stop-color="#5242e1"/>
      <stop offset=".43" stop-color="#7146e6"/>
      <stop offset=".63" stop-color="#9c4ded"/>
      <stop offset=".84" stop-color="#d254f6"/>
      <stop offset="1" stop-color="#ff5bfd"/>
    </linearGradient>
  </defs>
  <g id="Layer_1-2" data-name="Layer 1">
    <g>
      <text class="cls-8" transform="translate(0 138.82)"><tspan class="cls-3" x="0" y="0">w</tspan><tspan class="cls-9" x="42.63" y="0">a</tspan><tspan class="cls-1" x="71.79" y="0">x</tspan><tspan class="cls-5" x="97.55" y="0">v</tspan><tspan class="cls-6" x="124.44" y="0">a</tspan><tspan class="cls-4" x="153.29" y="0">l</tspan><tspan class="cls-7" x="169.57" y="0">u</tspan><tspan class="cls-2" x="201.04" y="0">e</tspan></text>
      <path class="cls-10" d="M148.58,61.87c-1.4-10.03-4.34-31.04-4.34-31.04-.31-1.94-3.03-2.05-3.48-.13-.01.05-3.43,15.65-6.06,27.61l-6.81-34.51c-.29-1.44-1.34-2.68-2.85-3.14-2.25-.68-4.61.69-5.17,2.96,0,0-6.66,22.2-11.71,39.02-6.41-20.55-17.86-57.24-17.86-57.24-1.3-4.2-5.91-6.47-10.03-4.93-3.99,1.48-6.03,5.91-4.55,9.9.18.2,27.1,73.65,27.29,73.78,1.94,5.12,9.39,4.72,10.73-.65l10.18-41.64c3.45,13.71,7.84,31.13,7.84,31.13.23,1.13,1.13,2.06,2.33,2.26,1.55.26,3.02-.79,3.28-2.35l5.25-31.7c2.07,10.65,5.08,26.18,5.06,26.19.07.34.35.62.71.66.45.06.87-.27.92-.72l3.87-31.8-4.6,26.34Z"/>
    </g>
  </g>
</svg>