<?xml version="1.0" encoding="UTF-8"?>
<svg id="Layer_2" data-name="Layer 2" xmlns="http://www.w3.org/2000/svg" viewBox="0 0 451.2 299.64">
  <defs>
    <style>
      .cls-1 {
        fill: #fff;
      }

      .cls-2 {
        opacity: .8;
      }

      .cls-3 {
        fill: #3b82f6;
      }
    </style>
  </defs>
  <g id="Layer_1-2" data-name="Layer 1">
    <g>
      <path class="cls-3" d="M288.15,132.76c-3.01-21.52-9.31-66.59-9.31-66.59-.66-4.17-6.49-4.4-7.47-.29-.02.11-7.37,33.57-13,59.25l-14.61-74.04c-.62-3.09-2.88-5.76-6.11-6.73-4.82-1.47-9.88,1.47-11.1,6.34,0,0-14.3,47.64-25.13,83.72-13.76-44.1-38.33-122.81-38.33-122.81-2.78-9.01-12.68-13.88-21.52-10.58-8.56,3.17-12.94,12.68-9.77,21.24.39.42,58.15,158.03,58.56,158.29,4.17,10.98,20.14,10.12,23.02-1.39l21.84-89.35c7.41,29.42,16.82,66.79,16.82,66.79.5,2.43,2.41,4.42,5.01,4.85,3.33.55,6.48-1.7,7.03-5.03l11.26-68.01c4.43,22.85,10.91,56.17,10.85,56.19.14.73.74,1.33,1.53,1.42.97.12,1.86-.57,1.97-1.55l8.3-68.23-9.86,56.5Z"/>
      <g>
        <g>
          <path class="cls-1" d="M239.87,245.26l-1.13,2.27c-3.78,7.62-9.41,19.26-16.89,34.92-.34-7.83-.86-18.37-1.54-31.62l-.31-5.56h-19.88l6.9,53.15h23.07l29.56-53.15h-19.78Z"/>
          <path class="cls-1" d="M301.91,288.83l5.25-24.31c1.44-6.87.27-12-3.5-15.4-3.78-3.4-10.23-5.1-19.36-5.1-8.65,0-15.24,1.49-19.78,4.48-4.53,2.99-7.55,7.74-9.06,14.26h18.74c.48-2.2,1.36-3.69,2.63-4.48,1.27-.79,3.31-1.19,6.13-1.19,2.4,0,4.07.41,5,1.24.93.82,1.29,1.99,1.08,3.5-.34,1.3-1.01,2.23-2.01,2.78s-2.73.93-5.2,1.13l-8.65.72c-7.83.69-13.61,2.23-17.36,4.63-3.74,2.4-6.13,6.01-7.16,10.81-1.17,5.42-.17,9.73,2.99,12.93,3.16,3.19,7.86,4.79,14.11,4.79,7,0,12.63-2.06,16.89-6.18-.14,2.06-.03,3.71.31,4.94h19.05c-1.03-1.92-1.06-5.11-.1-9.58ZM285.74,277.5c-.62,3.3-2.06,5.79-4.33,7.47-2.27,1.68-4.88,2.52-7.83,2.52-2.13,0-3.71-.46-4.74-1.39-1.03-.93-1.37-2.18-1.03-3.76.62-3.09,3.02-4.84,7.21-5.25l6.18-.62c2.47-.34,4.19-1.03,5.15-2.06l-.62,3.09Z"/>
          <polygon class="cls-1" points="321.59 225.07 305.93 298.41 324.88 298.41 340.54 225.07 321.59 225.07"/>
          <path class="cls-1" d="M376.79,245.26l-6.28,29.46c-.62,2.95-1.79,5.17-3.5,6.64-1.72,1.48-3.84,2.21-6.38,2.21-2.4,0-4.1-.79-5.1-2.37-1-1.58-1.18-3.74-.57-6.49l6.28-29.46h-18.95l-6.49,29.87c-1.79,8.03-1.44,14.13,1.03,18.28,2.47,4.15,6.63,6.23,12.46,6.23,6.87,0,12.88-2.75,18.03-8.24l-1.44,7h18.54l11.33-53.15h-18.95Z"/>
          <path class="cls-1" d="M446.62,252.06c-4.53-5.36-11.3-8.04-20.29-8.04-8.45,0-15.48,2.2-21.11,6.59-5.63,4.4-9.3,10.61-11.02,18.64-1.92,9.47-.69,16.89,3.71,22.25,4.39,5.42,11.12,8.14,20.19,8.14,7.21,0,13.34-1.54,18.38-4.63,5.05-3.09,8.67-7.55,10.87-13.39h-17.72c-2.2,3.09-5.46,4.63-9.79,4.63-2.88,0-5.17-.77-6.85-2.32-1.68-1.55-2.56-3.76-2.63-6.64h38.93c.34-.89.65-2.03.93-3.4,2.06-9.13.86-16.41-3.6-21.84ZM412.73,266.06c2.33-5.77,6.42-8.65,12.26-8.65,2.75,0,4.88.74,6.39,2.21,1.51,1.48,2.23,3.62,2.16,6.44h-20.8Z"/>
        </g>
        <g class="cls-2">
          <g>
            <path class="cls-1" d="M82.07,262.56c.46-5.87,1.24-11.64,2.37-17.3h-4.43c-1.65,8.52-2.57,17.3-2.74,26.25l4.81-8.95Z"/>
            <path class="cls-1" d="M66.45,291.65l3.81-7.11c-.21-3.36-.35-6.73-.35-10.14,0-9.96.96-19.69,2.7-29.15h-1.96l-3.63,7.42c-.94,7.12-1.48,14.36-1.48,21.73,0,5.82.31,11.58.9,17.25Z"/>
            <path class="cls-1" d="M89.85,248.07c.17-.94.33-1.88.52-2.82h-4.45c-.93,4.64-1.66,9.35-2.15,14.13l6.08-11.32Z"/>
            <path class="cls-1" d="M62.83,298.41l2.44-4.55c-.75-6.39-1.17-12.87-1.17-19.45,0-5.97.33-11.87.95-17.68l-1.49,3.05c-1.38,2.83-2.58,5.29-3.64,7.47-.1,2.38-.18,4.76-.18,7.16,0,8.15.61,16.15,1.72,24h1.38Z"/>
            <path class="cls-1" d="M40.93,268.03c.26-7.72.97-15.32,2.12-22.78h-4.42c-1.44,9.51-2.19,19.24-2.19,29.15,0,.79.02,1.58.03,2.37,1.54-3.26,3.03-6.49,4.41-9.68.01.3.03.63.04.94Z"/>
            <path class="cls-1" d="M55.58,298.41h4.4c-1.1-7.85-1.71-15.85-1.71-24,0-1.33.07-2.65.1-3.97-1.64,3.41-2.74,5.76-3.27,6.96-.27-9.68-.45-15.59-.52-17.72v-.14c-.42,4.91-.68,9.86-.68,14.87,0,8.14.6,16.15,1.67,24Z"/>
            <path class="cls-1" d="M78.53,245.26h-4.43c-1.76,9.46-2.72,19.19-2.72,29.15,0,2.59.07,5.16.2,7.72l4.17-7.77c0-9.95.98-19.67,2.79-29.1Z"/>
            <path class="cls-1" d="M29.81,290.4c-.42-5.28-.63-10.61-.63-16,0-4.91.19-9.77.53-14.6-1.66,3.56-3.24,7.09-4.85,10.63-.03,1.32-.05,2.64-.05,3.97,0,7.91.47,15.72,1.34,23.4l3.66-7.41Z"/>
            <path class="cls-1" d="M14.5,298.41h4.39c-.89-7.88-1.36-15.89-1.36-24,0-9.89.69-19.61,2-29.15h-4.41c-1.28,9.54-1.96,19.26-1.96,29.15,0,8.11.46,16.12,1.33,24Z"/>
            <path class="cls-1" d="M5.87,298.41h1.3c-.84-7.89-1.28-15.89-1.28-24,0-9.88.65-19.6,1.89-29.15H3.37c-.71,5.54-1.21,11.15-1.51,16.81l4.01,36.34Z"/>
            <path class="cls-1" d="M8.64,298.41h4.39c-.86-7.88-1.32-15.89-1.32-24,0-9.88.67-19.61,1.95-29.15h-4.41c-1.25,9.54-1.9,19.27-1.9,29.15,0,8.11.45,16.11,1.29,24Z"/>
            <path class="cls-1" d="M.97,254.08c.26-2.95.56-5.9.93-8.82H0l.97,8.82Z"/>
            <path class="cls-1" d="M31.09,287.81l3.83-7.74c.05-.11.1-.21.15-.32-.05-1.78-.08-3.56-.08-5.35,0-9.9.75-19.64,2.17-29.15h-.5l-5.19,10.85c-.55,6.03-.85,12.13-.85,18.3,0,4.51.16,8.98.46,13.41Z"/>
            <path class="cls-1" d="M43.79,298.41h4.46c-1.03-7.86-1.62-15.86-1.62-24,0-9.92.82-19.65,2.33-29.15h-4.44c-1.48,9.5-2.26,19.24-2.26,29.15,0,8.13.52,16.14,1.52,24Z"/>
            <path class="cls-1" d="M49.72,298.41h4.4c-1.06-7.86-1.66-15.86-1.66-24s.6-16.18,1.67-24.06l-.25-5.09h-3.42c-1.53,9.5-2.36,19.23-2.36,29.15,0,8.14.59,16.14,1.63,24Z"/>
            <path class="cls-1" d="M20.35,298.41h4.39c-.91-7.88-1.4-15.88-1.4-24,0-.23,0-.45,0-.68-.53,1.18-1.1,2.38-1.63,3.57-.07-.62-.12-1.54-.15-2.78-.04-1.24-.05-2.16-.05-2.78-.07-1.17-.19-3.23-.36-6.18-.17-2.95-.29-4.88-.36-5.77l-.55-8.55c-.83,7.61-1.27,15.34-1.27,23.17s.48,16.12,1.37,24Z"/>
          </g>
          <g>
            <path class="cls-1" d="M201.78,245.26h-2.42c-2.95,3.15-5.41,6.74-7.31,10.67l9.73-10.67Z"/>
            <path class="cls-1" d="M152.3,245.26c-1.15,3.07-2.11,6.24-2.9,9.47l3.13,6.46c.93-5.52,2.44-10.85,4.46-15.93h-4.69Z"/>
            <path class="cls-1" d="M189.1,259.16c1.9-5.16,4.73-9.86,8.3-13.91h-5.68c-4.55,6.05-7.72,13.19-9.04,20.95l6.43-7.04Z"/>
            <path class="cls-1" d="M164.18,286.62c-.73-3.96-1.13-8.04-1.13-12.21,0-8.61,1.64-16.85,4.6-24.43-.64-1.52-1.05-2.52-1.19-2.97l-.72-1.75h-.84c-3.97,8.91-6.2,18.77-6.2,29.15,0,5.69.69,11.22,1.94,16.53,1.24-1.45,2.41-2.89,3.55-4.31Z"/>
            <path class="cls-1" d="M158.56,245.26c-2.34,5.77-4.02,11.87-4.91,18.22l3.67,7.58c.41-9.13,2.51-17.83,5.98-25.8h-4.73Z"/>
            <path class="cls-1" d="M191.48,298.41l-9.28-19.29c.67,6.96,2.83,13.49,6.14,19.29h3.14Z"/>
            <path class="cls-1" d="M175.33,298.41h4.79c-3.48-7.27-5.43-15.41-5.43-24,0-10.68,3.02-20.66,8.23-29.15h-2.57l-2.58,2.99c-1.08,1.23-2.07,2.4-3.03,3.54-2.85,6.99-4.43,14.62-4.43,22.62,0,8.53,1.79,16.64,5,24Z"/>
            <path class="cls-1" d="M181.74,298.41h4.91c-3.72-6.78-5.91-14.51-6.11-22.73l-2.25-4.67,2.62-2.88c1.06-8.46,4.25-16.27,9-22.87h-5.27c-5.38,8.43-8.51,18.43-8.51,29.15,0,8.61,2.02,16.76,5.6,24Z"/>
            <path class="cls-1" d="M170.67,298.41h3.06c-3.13-7.38-4.86-15.49-4.86-24,0-6.72,1.1-13.19,3.09-19.26-.48.6-.95,1.18-1.39,1.75-.21-.55-.89-2.18-2.06-4.89-.02-.04-.03-.07-.05-.12-2.56,7.03-3.96,14.61-3.96,22.52,0,4.05.39,8.01,1.09,11.87,1.64,4.13,3.17,7.81,4.57,11l.51,1.13Z"/>
            <path class="cls-1" d="M136.97,298.41c-.33-1.3-.63-2.61-.91-3.92l-2.47,2.69c-.54-1.95-.46-4.7.33-8.35l.7-3.22c-.43-3.68-.67-7.41-.67-11.2,0-8.26,1.05-16.28,3.01-23.94-.39-.47-.82-.92-1.28-1.34-.7-.63-1.52-1.18-2.4-1.69-2.39,8.59-3.69,17.63-3.69,26.97,0,8.27,1.02,16.3,2.91,24h4.48Z"/>
            <path class="cls-1" d="M95.55,299.57c-1.52-8.16-2.35-16.57-2.35-25.16,0-1.93.07-3.85.15-5.77-1.67.53-3.13,1.14-4.41,1.84-.04,1.31-.1,2.61-.1,3.93,0,8.34.77,16.5,2.16,24.45,1.4.36,2.91.61,4.56.71Z"/>
            <path class="cls-1" d="M87.47,262.77h.42c.06-.73.1-1.47.17-2.19-.22.71-.42,1.44-.59,2.19Z"/>
            <path class="cls-1" d="M97.77,299.64c1.27,0,2.48-.09,3.67-.23-1.57-8.1-2.41-16.46-2.41-25.01,0-2.4.07-4.79.2-7.16-1.58.27-3.06.59-4.41.96-.09,2.06-.16,4.13-.16,6.21,0,8.62.84,17.04,2.38,25.21.25,0,.48.02.73.02Z"/>
            <path class="cls-1" d="M120.54,298.41h4.48c-1.76-7.73-2.72-15.75-2.72-24,0-10.21,1.45-20.08,4.11-29.46-1.35-.28-2.79-.5-4.35-.66-1.23,4.41-2.21,8.92-2.89,13.53.31.15.58.32.8.52.93.82,1.29,1.99,1.08,3.5-.34,1.3-1.01,2.23-2.01,2.78-.19.1-.43.2-.67.29-.26,3.13-.43,6.3-.43,9.5,0,.12,0,.23,0,.35.14-.12.3-.22.42-.35l-.38,1.91c.13,7.57,1,14.95,2.55,22.09Z"/>
            <path class="cls-1" d="M116.51,275.62c0-.41-.03-.81-.03-1.21,0-3.06.16-6.07.39-9.07-.85.18-1.85.32-3.04.42l-1.38.12c-.2,2.82-.34,5.66-.34,8.54,0,.73.04,1.44.06,2.17l1.05-.1c1.32-.18,2.41-.47,3.29-.85Z"/>
            <path class="cls-1" d="M110.72,276.72c-.01-.77-.06-1.54-.06-2.31,0-2.83.13-5.63.33-8.41l-4.4.37c-.17,2.66-.29,5.34-.29,8.05,0,.93.05,1.85.07,2.78.22-.03.43-.07.67-.1l3.68-.37Z"/>
            <path class="cls-1" d="M104.92,277.47c-.03-1.02-.08-2.03-.08-3.06,0-2.66.11-5.3.28-7.92-1.56.14-3.02.32-4.42.52-.14,2.45-.22,4.91-.22,7.4,0,1.97.06,3.92.15,5.87.85-1.37,2.3-2.3,4.29-2.81Z"/>
            <path class="cls-1" d="M105.4,262.77c.58-6.22,1.61-12.32,3.06-18.25-1.67.23-3.24.53-4.69.91-1.29,5.65-2.22,11.43-2.75,17.33h4.38Z"/>
            <path class="cls-1" d="M108.84,258.29c.74-.46,1.78-.77,3.06-.97.65-4.5,1.53-8.93,2.66-13.26-1.59.04-3.12.12-4.56.27-1.29,5.18-2.25,10.48-2.87,15.89.46-.84,1.02-1.5,1.71-1.93Z"/>
            <path class="cls-1" d="M112.51,295.25c-.52-2.97-.96-5.97-1.26-9.01-1.33.63-2.75,1-4.27,1.15.36,3.44.88,6.83,1.52,10.18,1.43-.63,2.78-1.4,4.02-2.31Z"/>
            <path class="cls-1" d="M99.56,262.77c.51-5.74,1.38-11.37,2.61-16.88-1.84.59-3.48,1.33-4.94,2.2-.95,4.81-1.62,9.7-2.05,14.68h4.38Z"/>
            <path class="cls-1" d="M107.12,298.14c-.67-3.5-1.22-7.05-1.6-10.65-1.98-.01-3.47-.44-4.49-1.26.4,4.4,1.02,8.74,1.84,13.01,1.49-.25,2.9-.61,4.24-1.1Z"/>
            <path class="cls-1" d="M82.88,293.96c-.66-5.03-1.07-10.15-1.22-15.32-.41,1.03-.74,2.12-1,3.29-1.06,4.94-.31,8.94,2.21,12.03Z"/>
            <path class="cls-1" d="M159.44,292.3c-1.44-5.73-2.22-11.72-2.22-17.89,0-1.04.04-2.07.08-3.1l-4.4,4.8c.15,6.96,1.22,13.7,3.09,20.09,1.19-1.31,2.34-2.61,3.45-3.9Z"/>
            <path class="cls-1" d="M93.73,262.77c.39-4.58,1-9.1,1.83-13.54-2.21,1.67-4.02,3.8-5.43,6.4-.32,2.36-.57,4.74-.77,7.14h4.37Z"/>
            <path class="cls-1" d="M89.43,298.39c-1.32-7.81-2.05-15.81-2.05-23.99,0-1.02.06-2.02.08-3.03-1.8,1.22-3.26,2.74-4.4,4.54.07,6.7.58,13.29,1.51,19.74,1.38,1.16,2.99,2.08,4.86,2.73Z"/>
            <path class="cls-1" d="M149.06,298.41c-1.41-4.79-2.43-9.76-2.98-14.86l-3.86,4.21c.55,3.63,1.33,7.18,2.3,10.65h4.53Z"/>
            <path class="cls-1" d="M148.41,252.68c.67-2.52,1.44-5,2.32-7.42h-4.6c-.18.53-.37,1.06-.54,1.59l2.82,5.83Z"/>
            <path class="cls-1" d="M135.64,280.85l3.53-16.33c1.07-5.09.7-9.23-1.11-12.41-1.73,7.16-2.67,14.62-2.67,22.3,0,2.17.1,4.31.24,6.44Z"/>
            <path class="cls-1" d="M153.99,298.41l.86-.93c-1.93-6.31-3.08-12.96-3.36-19.82l-4.08,4.45c.52,5.61,1.59,11.07,3.16,16.31h3.42Z"/>
            <path class="cls-1" d="M143.01,298.41c-.83-3.04-1.52-6.13-2.03-9.29l-3.71,4.05c.35,1.77.75,3.51,1.21,5.24h4.54Z"/>
            <path class="cls-1" d="M114.97,257.1c1.09,0,2.01.1,2.79.27.68-4.49,1.64-8.89,2.82-13.19-1.36-.09-2.77-.16-4.27-.16-.08,0-.15,0-.22,0-1.14,4.29-2.05,8.67-2.7,13.14.5-.03,1.02-.06,1.58-.06Z"/>
            <path class="cls-1" d="M114.66,293.46c-.14,2.06-.03,3.71.31,4.94h4.08c-1.23-5.72-2.04-11.59-2.37-17.59-.77,1.69-1.83,3.09-3.25,4.15-.25.18-.52.32-.77.49.27,2.95.67,5.87,1.16,8.76.28-.25.58-.48.85-.75Z"/>
            <path class="cls-1" d="M126.51,298.41h4.48c-1.86-7.7-2.87-15.73-2.87-24,0-9.59,1.35-18.87,3.83-27.68-1.23-.58-2.6-1.07-4.12-1.47-2.64,9.27-4.08,19.04-4.08,29.14,0,8.25.97,16.28,2.75,24Z"/>
          </g>
        </g>
      </g>
    </g>
  </g>
</svg>