<?xml version="1.0" encoding="UTF-8"?>
<svg id="Layer_2" data-name="Layer 2" xmlns="http://www.w3.org/2000/svg" xmlns:xlink="http://www.w3.org/1999/xlink" viewBox="0 0 322.88 87.78">
  <defs>
    <style>
      .cls-1 {
        font-family: CooperBlackStd-Italic, 'Cooper Std';
        font-size: 48px;
        font-style: italic;
      }

      .cls-2 {
        letter-spacing: -.03em;
      }

      .cls-3 {
        letter-spacing: -.02em;
      }

      .cls-4 {
        letter-spacing: -.02em;
      }

      .cls-5 {
        letter-spacing: -.04em;
      }

      .cls-6 {
        letter-spacing: -.03em;
      }

      .cls-7 {
        letter-spacing: -.03em;
      }

      .cls-8 {
        letter-spacing: -.03em;
      }

      .cls-9 {
        letter-spacing: -.02em;
      }

      .cls-10 {
        fill: url(#linear-gradient);
      }
    </style>
    <linearGradient id="linear-gradient" x1="0" y1="43.89" x2="77.94" y2="43.89" gradientUnits="userSpaceOnUse">
      <stop offset="0" stop-color="#ff1ffd"/>
      <stop offset=".11" stop-color="#f71ef9"/>
      <stop offset=".26" stop-color="#e31def"/>
      <stop offset=".45" stop-color="#c11adf"/>
      <stop offset=".67" stop-color="#9317c8"/>
      <stop offset=".91" stop-color="#5813ab"/>
      <stop offset="1" stop-color="#3f129f"/>
    </linearGradient>
  </defs>
  <g id="Layer_1-2" data-name="Layer 1">
    <g>
      <text class="cls-1" transform="translate(94.48 67.39)"><tspan class="cls-4" x="0" y="0">w</tspan><tspan class="cls-9" x="42.63" y="0">a</tspan><tspan class="cls-2" x="71.79" y="0">x</tspan><tspan class="cls-6" x="97.55" y="0">v</tspan><tspan class="cls-7" x="124.44" y="0">a</tspan><tspan class="cls-5" x="153.29" y="0">l</tspan><tspan class="cls-8" x="169.57" y="0">u</tspan><tspan class="cls-3" x="201.04" y="0">e</tspan></text>
      <path class="cls-10" d="M73.35,61.87c-1.4-10.03-4.34-31.04-4.34-31.04-.31-1.94-3.03-2.05-3.48-.13-.01.05-3.43,15.65-6.06,27.61l-6.81-34.51c-.29-1.44-1.34-2.68-2.85-3.14-2.25-.68-4.61.69-5.17,2.96,0,0-6.66,22.2-11.71,39.02C26.51,42.1,15.06,5.41,15.06,5.41,13.76,1.22,9.15-1.06,5.03.48,1.04,1.96-1,6.39.48,10.38c.18.2,27.1,73.65,27.29,73.78,1.94,5.12,9.39,4.72,10.73-.65l10.18-41.64c3.45,13.71,7.84,31.13,7.84,31.13.23,1.13,1.13,2.06,2.33,2.26,1.55.26,3.02-.79,3.28-2.35l5.25-31.7c2.07,10.65,5.08,26.18,5.06,26.19.07.34.35.62.71.66.45.06.87-.27.92-.72l3.87-31.8-4.6,26.34Z"/>
    </g>
  </g>
</svg>