<?xml version="1.0" encoding="UTF-8"?>
<svg id="Layer_2" data-name="Layer 2" xmlns="http://www.w3.org/2000/svg" xmlns:xlink="http://www.w3.org/1999/xlink" viewBox="0 0 58.42 68.58">
  <defs>
    <style>
      .cls-1 {
        fill: url(#linear-gradient);
      }
    </style>
    <linearGradient id="linear-gradient" x1="0" y1="34.29" x2="58.42" y2="34.29" gradientUnits="userSpaceOnUse">
      <stop offset="0" stop-color="#bd00ff"/>
      <stop offset="1" stop-color="#25007f"/>
    </linearGradient>
  </defs>
  <g id="Layer_1-2" data-name="Layer 1">
    <path class="cls-1" d="M9.73,8.87l8.08,49.17-7.89,2.21c.09-.58,9.52-46.41,9.61-46.84,1.04-4.36,5.42-2.29,6.28,2.45,0,0,8.01,38.37,8.01,38.37l-4.78,1.4c.03-.18,9.79-35.39,9.82-35.51.5-1.54,2.74-.6,3.16,1.21,0,0,8.2,28.57,8.2,28.57l-1.59.48s9.78-22.93,9.78-22.93l-8.19,22.89c-.22.77-1.38,1.16-1.59.5,0,0-9.8-29.49-9.8-29.49l3.19,1.04-8.2,33.71c-.37,1.79-1.74,3.27-3.06,3.27-.86-.01-1.48-.69-1.72-1.71,0,0-9.57-40.87-9.57-40.87l6.34,1.91-8,43.32c-1.09,6.67-6.51,9.18-7.81,3.05,0,0-.08-.4-.08-.4L.27,11.37C-.62,5.84.76.69,3.35.05c2.68-.57,5.62,3.58,6.38,8.82h0Z"/>
  </g>
</svg>