<?xml version="1.0" encoding="UTF-8"?>
<svg id="Layer_2" data-name="Layer 2" xmlns="http://www.w3.org/2000/svg" viewBox="0 0 223.93 223.93">
  <defs>
    <style>
      .cls-1 {
        fill: #fff;
      }
    </style>
  </defs>
  <g id="Layer_1-2" data-name="Layer 1">
    <g>
      <path class="cls-1" d="M83.48,3.66v100.88c0,15.96-6.27,31.02-17.66,42.41-11.39,11.39-26.45,17.66-42.41,17.66-3.66,0-7.27-.35-10.81-.99,2.73,5.24,5.86,10.24,9.36,14.96.49,0,.97.04,1.45.04h0c40.73,0,74.06-33.33,74.06-74.06V.93c-4.77.62-9.44,1.53-14,2.73Z"/>
      <path class="cls-1" d="M147.38,180.6c-11.39-11.39-17.66-26.45-17.66-42.41s6.27-31.02,17.66-42.41c11.39-11.39,26.45-17.66,42.41-17.66h28.94c-1.52-4.82-3.37-9.49-5.5-14h-23.43c-40.73,0-74.06,33.33-74.06,74.06h0c0,33.14,22.06,61.38,52.22,70.75,5.57-3.22,10.83-6.91,15.73-11-13.67-1.39-26.38-7.42-36.3-17.34Z"/>
      <path class="cls-1" d="M111.96,14c54.02,0,97.96,43.95,97.96,97.96s-43.95,97.96-97.96,97.96S14,165.98,14,111.96,57.95,14,111.96,14M111.96,0C50.13,0,0,50.13,0,111.96s50.13,111.96,111.96,111.96,111.96-50.13,111.96-111.96S173.8,0,111.96,0h0Z"/>
    </g>
  </g>
</svg>