<?xml version="1.0" encoding="UTF-8"?>
<svg id="Layer_2" data-name="Layer 2" xmlns="http://www.w3.org/2000/svg" viewBox="0 0 96.37 96.37">
  <defs>
    <style>
      .cls-1 {
        fill: #fff;
      }
    </style>
  </defs>
  <g id="Layer_1-2" data-name="Layer 1">
    <g>
      <circle cx="48.19" cy="48.19" r="48.19"/>
      <path class="cls-1" d="M35.95,81.49c-.59-.23-1.06-.67-1.4-1.33-.34-.66-.72-1.86-1.13-3.59-1.92-7.89-3.32-15.62-4.21-23.19-.89-7.57-1.33-13.91-1.33-19.02,0-1.64.05-3.19.14-4.65.09-2.14.23-3.75.41-4.82.18-1.07.46-1.88.82-2.43.87-1.37,1.75-2.1,2.63-2.19.89-.09,1.43-.14,1.61-.14,1.32,0,2.46.5,3.42,1.51.64.68,1.09,1.59,1.37,2.7.27,1.12.46,2.89.55,5.3l.14,2.53.62-1.71c.41-1.23.78-2.22,1.09-2.98s.75-1.7,1.3-2.84c2.6-5.34,5.77-8.71,9.51-10.13,1.14-.46,2.21-.68,3.22-.68s1.85.18,2.67.55c1.73.78,3.23,2.01,4.48,3.69,1.25,1.69,2.18,3.47,2.77,5.34.32.96.62,2.08.89,3.35.27,1.28.41,2.14.41,2.6v.55l2.12-.55c2.01-.5,3.89-.93,5.65-1.3,1.75-.36,2.88-.55,3.39-.55,1.05,0,1.7.25,1.95.75.25.5.38.94.38,1.3,0,.32-.07.64-.21.96-.27.68-.84,1.14-1.71,1.37-.64.09-1.54.27-2.7.55s-2.38.57-3.66.89c-1.28.32-2.37.62-3.28.89s-1.44.43-1.57.48c-.05.09-.1.31-.17.65s-.13.76-.17,1.27c-.64,5.93-2.65,10.63-6.02,14.09-2.28,2.24-4.49,3.65-6.64,4.24-2.14.59-3.81.89-4.99.89-1.41,0-2.74-.25-3.97-.75-2.05-1-3.38-2.69-3.97-5.06l-.27-1.03-.21,2.12c-.09.59-.14,1.28-.14,2.05v.75c0,1.05.05,2.76.14,5.13.41,7.25.63,12.37.65,15.36.02,2.99-.1,4.76-.38,5.3-.41.96-.89,1.55-1.44,1.78-.55.23-1,.34-1.37.34-.46,0-.91-.11-1.37-.34ZM42.73,42.15c1.05-1.23,2.62-2.6,4.72-4.11s4.24-2.81,6.43-3.9c.68-.36,1.31-.68,1.88-.96.57-.27.95-.43,1.13-.48l.62-.27v-1.51c0-.91-.15-2.34-.44-4.28-.3-1.94-.79-3.46-1.47-4.55s-1.46-1.64-2.33-1.64c-.46,0-.96.11-1.51.34-2.14,1.14-4.14,3.64-5.99,7.49-1.85,3.86-3.39,8.66-4.62,14.4-.23,1.14-.34,1.85-.34,2.12v.21s.18-.23.41-.68c.18-.32.41-.67.68-1.06.27-.39.55-.76.82-1.13ZM49.02,48.78c2.83-.87,4.81-2.39,5.95-4.58.32-.73.67-1.64,1.06-2.74.39-1.09.65-1.98.79-2.67l.14-.55-1.23.68c-2.14,1.28-4.06,2.65-5.75,4.11-1.69,1.46-2.81,2.74-3.35,3.83-.23.5-.34.94-.34,1.3,0,.59.37.89,1.09.89.46,0,1-.09,1.64-.27Z"/>
    </g>
  </g>
</svg>