<?xml version="1.0" encoding="UTF-8"?>
<svg xmlns="http://www.w3.org/2000/svg" viewBox="0 0 337.6 79.34">
  <defs>
    <style>
      .cls-1 {
        fill: #00aeef;
      }

      .cls-2 {
        fill: #fff200;
      }

      .cls-3 {
        fill: #ec008c;
      }

      .cls-4 {
        isolation: isolate;
      }

      .cls-5 {
        mix-blend-mode: multiply;
      }
    </style>
  </defs>
  <g class="cls-4">
    <g id="Layer_2" data-name="Layer 2">
      <g id="Layer_1-2" data-name="Layer 1">
        <g>
          <g>
            <g class="cls-5">
              <circle class="cls-1" cx="56.26" cy="53.8" r="25.55"/>
            </g>
            <g class="cls-5">
              <circle class="cls-3" cx="25.55" cy="53.8" r="25.55"/>
            </g>
            <g class="cls-5">
              <circle class="cls-2" cx="40.91" cy="25.55" r="25.55"/>
            </g>
          </g>
          <g>
            <path d="M132.35,38.52c0,2.6-.32,4.99-.97,7.18-.64,2.19-1.58,4.08-2.8,5.67-1.22,1.59-2.74,2.83-4.56,3.72s-3.91,1.33-6.27,1.33c-1.8,0-3.4-.45-4.82-1.36s-2.52-2.05-3.33-3.44v14.27h-2.52c-.72,0-1.43-.13-2.11-.38s-1.28-.62-1.8-1.11-.94-1.07-1.26-1.74-.48-1.45-.48-2.33v-19.57c0-2.68.31-5.14.94-7.38.62-2.25,1.6-4.16,2.92-5.76,1.32-1.59,3-2.83,5.04-3.71s4.48-1.32,7.31-1.32c2.17,0,4.15.45,5.95,1.35,1.8.9,3.34,2.08,4.64,3.56,1.3,1.48,2.31,3.17,3.03,5.1.72,1.92,1.08,3.9,1.08,5.93ZM124.06,40.63c0-3.85-.63-6.63-1.89-8.35-1.26-1.72-3.19-2.58-5.79-2.58-2.25,0-3.96.87-5.13,2.61-1.17,1.74-1.76,4.01-1.76,6.83,0,3.24.73,5.74,2.18,7.5s3.38,2.64,5.79,2.64c1.95,0,3.54-.79,4.76-2.37s1.83-3.67,1.83-6.27Z"/>
            <path d="M135.07,40.1c0-2.44.34-4.72,1.03-6.84.68-2.12,1.7-3.97,3.06-5.55s3.04-2.83,5.04-3.75c2-.92,4.3-1.38,6.9-1.38,2.44,0,4.61.45,6.5,1.35,1.89.9,3.49,2.11,4.79,3.62,1.3,1.51,2.29,3.25,2.97,5.21s1.03,4.03,1.03,6.2c0,2.44-.35,4.72-1.05,6.84-.7,2.12-1.72,3.97-3.06,5.54-1.34,1.57-3.01,2.81-5.01,3.72s-4.3,1.36-6.9,1.36c-2.44,0-4.61-.45-6.5-1.36s-3.49-2.11-4.79-3.6-2.29-3.22-2.97-5.19-1.03-4.02-1.03-6.17ZM158.04,40.1c0-3.24-.62-5.78-1.86-7.6-1.24-1.83-3.18-2.74-5.82-2.74-2.32,0-4.06.86-5.21,2.58-1.15,1.72-1.73,3.93-1.73,6.62,0,3.22.61,5.74,1.83,7.54,1.22,1.81,3.17,2.71,5.84,2.71,2.36,0,4.11-.86,5.24-2.58,1.13-1.72,1.7-3.9,1.7-6.53Z"/>
            <path d="M199.85,40.74c0,2.36-.29,4.5-.86,6.42-.58,1.92-1.48,3.56-2.72,4.95-1.24,1.39-2.85,2.45-4.83,3.19s-4.35,1.11-7.1,1.11c-2.13,0-4.11-.43-5.95-1.29s-3.43-2.04-4.79-3.54c-1.36-1.5-2.42-3.24-3.18-5.2s-1.14-4.06-1.14-6.28c0-2.66.32-5.06.95-7.22.63-2.16,1.56-4.01,2.78-5.55,1.22-1.54,2.74-2.72,4.57-3.53,1.83-.81,3.92-1.22,6.28-1.22.8,0,1.61.13,2.43.38.82.25,1.59.61,2.3,1.07.71.46,1.36,1,1.95,1.63.59.63,1.04,1.3,1.35,2.02v-15.21h2.46c1.91,0,3.31.5,4.19,1.51.88,1.01,1.32,2.33,1.32,3.97v22.79ZM191.77,40.39c0-2.05-.21-3.77-.63-5.17-.42-1.4-.98-2.52-1.68-3.38-.7-.86-1.53-1.49-2.49-1.89-.96-.4-1.97-.6-3.05-.6s-1.99.23-2.81.69c-.82.46-1.52,1.1-2.09,1.92s-1.03,1.79-1.35,2.92c-.32,1.12-.48,2.34-.48,3.65,0,1.68.21,3.2.63,4.57.42,1.37.99,2.54,1.71,3.52.72.98,1.57,1.72,2.55,2.24.98.52,2.05.78,3.22.78,2.27,0,3.91-.8,4.94-2.4,1.03-1.6,1.54-3.88,1.54-6.83Z"/>
            <path d="M250.25,55.68c-2.19,0-3.75-.5-4.7-1.49s-1.42-2.46-1.42-4.39v-12.48c0-2.68-.54-4.61-1.61-5.82s-2.51-1.8-4.31-1.8c-1.64,0-2.96.56-3.97,1.68-1.01,1.12-1.51,2.81-1.51,5.05v19.25h-2.17c-1.8,0-3.22-.5-4.28-1.49s-1.58-2.46-1.58-4.39v-12.48c0-2.68-.55-4.61-1.66-5.82s-2.55-1.8-4.35-1.8c-1.56,0-2.86.59-3.9,1.77-1.04,1.18-1.55,2.9-1.55,5.14v19.07h-2.17c-1.68,0-3.07-.51-4.17-1.52-1.1-1.01-1.66-2.47-1.66-4.37v-12.54c0-2.19.29-4.18.88-5.99.59-1.81,1.47-3.36,2.67-4.66,1.19-1.3,2.69-2.29,4.5-2.99,1.81-.69,3.93-1.04,6.37-1.04,2.11,0,3.98.45,5.62,1.35,1.64.9,3.05,2.13,4.22,3.69.92-1.52,2.21-2.74,3.87-3.66,1.66-.92,3.47-1.38,5.42-1.38,1.84,0,3.57.28,5.21.83s3.07,1.41,4.29,2.55,2.18,2.57,2.89,4.29c.7,1.72,1.05,3.71,1.05,5.98v19.45h-1.99Z"/>
            <path d="M283.3,44.64c0,1.72-.3,3.29-.89,4.72-.6,1.43-1.44,2.65-2.52,3.66-1.08,1.02-2.37,1.8-3.87,2.36s-3.14.83-4.94.83h-1.64c-1.91,0-3.67-.26-5.27-.78-1.6-.52-2.97-1.23-4.12-2.12-1.14-.9-2.02-1.98-2.64-3.24s-.92-2.63-.92-4.12.28-2.78.83-4.01,1.46-2.3,2.72-3.21,2.92-1.62,4.98-2.14c2.06-.52,4.58-.78,7.54-.78h2.81v-.41c0-2.29-.56-3.85-1.68-4.69-1.12-.84-2.88-1.26-5.26-1.26-1.45,0-2.74.12-3.88.37-1.14.25-2.13.56-2.97.94s-1.55.79-2.12,1.23-1.01.83-1.3,1.19h-.29v-2.58c0-.88.21-1.79.63-2.72s1.1-1.8,2.04-2.58c.94-.78,2.16-1.41,3.66-1.89,1.5-.48,3.31-.72,5.42-.72,1.82,0,3.54.23,5.19.69,1.64.46,3.09,1.25,4.35,2.36s2.27,2.6,3.02,4.47c.75,1.87,1.13,4.19,1.13,6.99v7.44ZM275.45,41.59h-2.87c-1.52,0-2.79.09-3.81.26s-1.83.44-2.43.78c-.61.34-1.03.77-1.26,1.29-.23.52-.35,1.1-.35,1.74,0,1.29.48,2.28,1.44,2.97.96.69,2.33,1.04,4.13,1.04,3.44,0,5.16-1.66,5.16-4.98v-3.11Z"/>
            <path d="M288.23,24.6c0-.8.04-1.49.13-2.07.09-.58.22-1.1.4-1.58.18-.48.42-.93.72-1.35.3-.42.67-.89,1.1-1.42.57-.64,1.18-1.18,1.83-1.6.65-.42,1.3-.63,1.95-.63h1.88v7.32h11.22v3.31c0,.84-.39,1.69-1.17,2.55-.78.86-1.99,1.29-3.63,1.29h-6.42v12.66c0,2.11.44,3.61,1.32,4.5.88.89,2.14,1.33,3.78,1.33,2.64,0,4.57-.38,5.8-1.14h.32v2.87c0,1.68-.59,3-1.77,3.96-1.18.96-2.95,1.44-5.32,1.44-4.12,0-7.17-1.05-9.16-3.15-1.98-2.1-2.97-5.04-2.97-8.83v-19.45Z"/>
            <path d="M337.6,35.12c0,2.95-1.2,5-3.6,6.14s-6.26,1.71-11.57,1.71h-5.27c.31,2.03,1.3,3.65,2.96,4.85s3.69,1.8,6.09,1.8c1.68,0,3.43-.21,5.24-.63,1.82-.42,3.37-1.23,4.66-2.42h.29v2.52c0,1.04-.19,1.99-.57,2.87s-1.03,1.65-1.95,2.31c-.92.66-2.13,1.19-3.63,1.57s-3.35.57-5.54.57c-2.01,0-3.97-.38-5.89-1.14s-3.61-1.86-5.1-3.28c-1.48-1.42-2.68-3.13-3.57-5.13s-1.35-4.23-1.35-6.71c0-2.7.39-5.13,1.17-7.31.78-2.18,1.87-4.03,3.27-5.55s3.07-2.69,5.01-3.5c1.94-.81,4.08-1.22,6.4-1.22,1.68,0,3.3.29,4.85.86,1.55.58,2.93,1.4,4.13,2.48,1.2,1.07,2.16,2.39,2.89,3.96.72,1.56,1.08,3.31,1.08,5.24ZM330.04,34.15c0-1.64-.55-2.86-1.66-3.66-1.1-.8-2.59-1.2-4.47-1.2-.96,0-1.85.19-2.67.57s-1.53.88-2.14,1.49-1.07,1.34-1.41,2.18c-.33.84-.52,1.72-.56,2.64l-.06,1.08h3.57c1.93,0,3.5-.06,4.7-.18s2.15-.3,2.84-.54c.69-.24,1.17-.57,1.44-.97.26-.4.4-.87.4-1.42Z"/>
          </g>
        </g>
      </g>
    </g>
  </g>
</svg>