<?xml version="1.0" encoding="UTF-8"?>
<svg xmlns="http://www.w3.org/2000/svg" viewBox="0 0 337.6 79.34">
  <defs>
    <style>
      .cls-1 {
        fill: #00aeef;
      }

      .cls-2 {
        fill: #fff200;
      }

      .cls-3 {
        fill: #fff;
      }

      .cls-4 {
        fill: #ec008c;
      }

      .cls-5 {
        isolation: isolate;
      }

      .cls-6 {
        mix-blend-mode: multiply;
      }
    </style>
  </defs>
  <g class="cls-5">
    <g id="Layer_2" data-name="Layer 2">
      <g id="Layer_1-2" data-name="Layer 1">
        <g>
          <g>
            <g class="cls-6">
              <circle class="cls-1" cx="56.26" cy="53.8" r="25.55"/>
            </g>
            <g class="cls-6">
              <circle class="cls-4" cx="25.55" cy="53.8" r="25.55"/>
            </g>
            <g class="cls-6">
              <circle class="cls-2" cx="40.91" cy="25.55" r="25.55"/>
            </g>
          </g>
          <g>
            <path class="cls-3" d="M132.35,38.52c0,2.6-.32,4.99-.97,7.18s-1.58,4.08-2.8,5.67-2.74,2.83-4.56,3.72-3.91,1.33-6.27,1.33c-1.8,0-3.4-.45-4.82-1.36s-2.52-2.06-3.33-3.44v14.27h-2.52c-.72,0-1.43-.13-2.11-.38-.68-.25-1.28-.63-1.8-1.11-.52-.49-.94-1.07-1.26-1.74s-.48-1.45-.48-2.33v-19.57c0-2.68.31-5.14.94-7.38s1.6-4.17,2.92-5.76,3-2.83,5.04-3.71,4.48-1.32,7.31-1.32c2.17,0,4.15.45,5.95,1.35s3.34,2.08,4.64,3.56,2.31,3.17,3.03,5.1,1.08,3.9,1.08,5.93ZM124.06,40.63c0-3.85-.63-6.63-1.89-8.35s-3.19-2.58-5.79-2.58c-2.25,0-3.96.87-5.13,2.61s-1.76,4.01-1.76,6.83c0,3.24.73,5.74,2.18,7.5s3.38,2.64,5.79,2.64c1.95,0,3.54-.79,4.76-2.37s1.83-3.67,1.83-6.27Z"/>
            <path class="cls-3" d="M135.07,40.1c0-2.44.34-4.72,1.03-6.84s1.7-3.97,3.06-5.55,3.04-2.83,5.04-3.75,4.3-1.38,6.9-1.38c2.44,0,4.61.45,6.5,1.35s3.49,2.1,4.79,3.62,2.29,3.25,2.97,5.21,1.03,4.03,1.03,6.2c0,2.44-.35,4.72-1.05,6.84s-1.72,3.96-3.06,5.54-3.01,2.81-5.01,3.72-4.3,1.36-6.9,1.36c-2.44,0-4.61-.45-6.5-1.36s-3.49-2.11-4.79-3.6-2.29-3.22-2.97-5.19-1.03-4.02-1.03-6.17ZM158.04,40.1c0-3.24-.62-5.78-1.86-7.6s-3.18-2.74-5.82-2.74c-2.32,0-4.06.86-5.21,2.58s-1.73,3.93-1.73,6.62c0,3.22.61,5.74,1.83,7.54s3.17,2.71,5.84,2.71c2.36,0,4.11-.86,5.24-2.58s1.7-3.9,1.7-6.53Z"/>
            <path class="cls-3" d="M199.85,40.74c0,2.36-.29,4.5-.86,6.42s-1.48,3.56-2.72,4.95-2.85,2.45-4.83,3.19-4.35,1.11-7.1,1.11c-2.13,0-4.11-.43-5.95-1.29s-3.43-2.04-4.79-3.54-2.42-3.24-3.18-5.2-1.14-4.06-1.14-6.28c0-2.66.32-5.06.95-7.22s1.56-4.01,2.78-5.55,2.74-2.72,4.57-3.53,3.92-1.22,6.28-1.22c.8,0,1.61.13,2.43.38s1.59.61,2.3,1.07,1.36,1,1.95,1.63,1.04,1.3,1.35,2.02v-15.21h2.46c1.91,0,3.31.5,4.19,1.51s1.32,2.33,1.32,3.97v22.79ZM191.77,40.39c0-2.05-.21-3.77-.63-5.17s-.98-2.52-1.68-3.38-1.53-1.49-2.49-1.89-1.97-.6-3.05-.6-1.99.23-2.81.69-1.52,1.1-2.09,1.92-1.03,1.79-1.35,2.92-.48,2.34-.48,3.65c0,1.68.21,3.2.63,4.57s.99,2.54,1.71,3.52,1.57,1.72,2.55,2.24,2.05.78,3.22.78c2.27,0,3.91-.8,4.94-2.4s1.54-3.88,1.54-6.83Z"/>
            <path class="cls-3" d="M250.25,55.69c-2.19,0-3.75-.5-4.7-1.49s-1.42-2.46-1.42-4.39v-12.48c0-2.68-.54-4.61-1.61-5.82s-2.51-1.8-4.31-1.8c-1.64,0-2.96.56-3.97,1.68s-1.51,2.81-1.51,5.05v19.25h-2.17c-1.8,0-3.22-.5-4.28-1.49s-1.58-2.46-1.58-4.39v-12.48c0-2.68-.55-4.61-1.66-5.82s-2.55-1.8-4.35-1.8c-1.56,0-2.86.59-3.9,1.77s-1.55,2.9-1.55,5.14v19.07h-2.17c-1.68,0-3.07-.51-4.17-1.52s-1.66-2.47-1.66-4.37v-12.54c0-2.19.29-4.18.88-5.99s1.47-3.36,2.67-4.66,2.69-2.29,4.5-2.99,3.93-1.04,6.37-1.04c2.11,0,3.98.45,5.62,1.35s3.05,2.13,4.22,3.69c.92-1.52,2.21-2.74,3.87-3.66s3.47-1.38,5.42-1.38c1.84,0,3.57.28,5.21.83s3.07,1.41,4.29,2.55,2.18,2.57,2.89,4.29,1.05,3.71,1.05,5.98v19.45h-1.99Z"/>
            <path class="cls-3" d="M283.3,44.64c0,1.72-.3,3.29-.89,4.72s-1.44,2.65-2.52,3.66-2.37,1.8-3.87,2.36-3.14.83-4.94.83h-1.64c-1.91,0-3.67-.26-5.27-.78-1.6-.52-2.97-1.23-4.12-2.12s-2.02-1.98-2.64-3.24-.92-2.63-.92-4.12.28-2.78.83-4.01,1.46-2.3,2.72-3.21,2.92-1.62,4.98-2.14,4.58-.78,7.54-.78h2.81v-.41c0-2.29-.56-3.85-1.68-4.69s-2.88-1.26-5.26-1.26c-1.45,0-2.74.12-3.88.37s-2.13.56-2.97.94-1.55.79-2.12,1.23-1.01.83-1.3,1.19h-.29v-2.58c0-.88.21-1.79.63-2.72s1.1-1.8,2.04-2.58,2.16-1.41,3.66-1.89,3.31-.72,5.42-.72c1.82,0,3.54.23,5.19.69s3.09,1.25,4.35,2.36,2.27,2.6,3.02,4.47,1.13,4.19,1.13,6.99v7.44ZM275.45,41.59h-2.87c-1.52,0-2.79.09-3.81.26s-1.83.43-2.43.78-1.03.77-1.26,1.29-.35,1.1-.35,1.74c0,1.29.48,2.28,1.44,2.97s2.33,1.04,4.13,1.04c3.44,0,5.16-1.66,5.16-4.98v-3.11Z"/>
            <path class="cls-3" d="M288.23,24.6c0-.8.04-1.49.13-2.07s.22-1.1.4-1.58.42-.93.72-1.35.67-.89,1.1-1.42c.57-.64,1.18-1.18,1.83-1.6s1.3-.63,1.95-.63h1.88v7.32h11.22v3.31c0,.84-.39,1.69-1.17,2.55s-1.99,1.29-3.63,1.29h-6.42v12.66c0,2.11.44,3.61,1.32,4.5s2.14,1.33,3.78,1.33c2.64,0,4.57-.38,5.8-1.14h.32v2.87c0,1.68-.59,3-1.77,3.96s-2.95,1.44-5.32,1.44c-4.12,0-7.17-1.05-9.16-3.15s-2.97-5.04-2.97-8.83v-19.45Z"/>
            <path class="cls-3" d="M337.6,35.12c0,2.95-1.2,5-3.6,6.14s-6.26,1.71-11.57,1.71h-5.27c.31,2.03,1.3,3.65,2.96,4.85s3.69,1.8,6.09,1.8c1.68,0,3.43-.21,5.24-.63s3.37-1.23,4.66-2.42h.29v2.52c0,1.04-.19,1.99-.57,2.87s-1.03,1.65-1.95,2.31-2.13,1.19-3.63,1.57-3.35.57-5.54.57c-2.01,0-3.97-.38-5.89-1.14s-3.61-1.86-5.1-3.28-2.68-3.13-3.57-5.13-1.35-4.23-1.35-6.71c0-2.7.39-5.13,1.17-7.31s1.87-4.03,3.27-5.55,3.07-2.69,5.01-3.5,4.08-1.22,6.4-1.22c1.68,0,3.3.29,4.85.86s2.93,1.4,4.13,2.48,2.16,2.39,2.89,3.96,1.08,3.31,1.08,5.24ZM330.04,34.15c0-1.64-.55-2.86-1.66-3.66s-2.59-1.2-4.47-1.2c-.96,0-1.85.19-2.67.57s-1.53.88-2.14,1.49-1.07,1.34-1.41,2.18-.52,1.72-.56,2.64l-.06,1.08h3.57c1.93,0,3.5-.06,4.7-.18s2.15-.3,2.84-.54,1.17-.57,1.44-.97.4-.87.4-1.42Z"/>
          </g>
        </g>
      </g>
    </g>
  </g>
</svg>