<?xml version="1.0" encoding="UTF-8"?>
<svg id="Layer_2" data-name="Layer 2" xmlns="http://www.w3.org/2000/svg" viewBox="0 0 186.96 186.96">
  <defs>
    <style>
      .cls-1 {
        fill: #fff;
      }
    </style>
  </defs>
  <g id="Layer_1-2" data-name="Layer 1">
    <g>
      <circle class="cls-1" cx="93.48" cy="93.48" r="93.48"/>
      <g>
        <path d="M48.35,72.5v-11.65h-15.45v65.35h15.96v-33.18c0-5.99,1.63-10.53,4.88-13.61,3.25-3.08,7.92-4.62,13.99-4.62h4.05v-14.69c-1.18-.17-2.49-.25-3.93-.25-9.37,0-15.87,4.22-19.5,12.66Z"/>
        <path d="M107.52,59.33c-9.62,0-17.43,3.12-23.43,9.37-5.91,6.25-8.87,14.52-8.87,24.82s3,18.57,8.99,24.82c5.99,6.25,13.85,9.37,23.56,9.37,7.77,0,14.35-1.96,19.76-5.89,5.4-3.92,8.95-9.22,10.64-15.89h-15.32c-2.7,6.25-7.68,9.37-14.94,9.37-4.9,0-8.8-1.41-11.71-4.24-2.91-2.83-4.66-7.03-5.26-12.6h48.88v-3.8c0-10.55-2.91-19.08-8.74-25.58-5.83-6.5-13.68-9.75-23.55-9.75ZM91.05,87.32c1.52-10.38,6.97-15.58,16.34-15.58,4.56,0,8.27,1.39,11.15,4.18,2.87,2.79,4.64,6.59,5.32,11.4h-32.8Z"/>
        <rect x="149.77" y="38.4" width="4.29" height="110.15"/>
      </g>
    </g>
  </g>
</svg>