<?xml version="1.0" encoding="UTF-8"?>
<svg id="Layer_2" xmlns="http://www.w3.org/2000/svg" version="1.1" viewBox="0 0 187 187">
  <!-- Generator: Adobe Illustrator 29.8.1, SVG Export Plug-In . SVG Version: 2.1.1 Build 2)  -->
  <defs>
    <style>
      .st0 {
        fill: #fff;
      }
    </style>
  </defs>
  <path class="st0" d="M93.5,0C41.9,0,0,41.9,0,93.5s41.9,93.5,93.5,93.5,93.5-41.9,93.5-93.5S145.1,0,93.5,0ZM152.4,133.8c0,.7-.7,1.2-1.4,1.1-.5,0-1-.5-1.1-1,0,0-4.5-23.4-7.6-39.5l-7.9,47.8c-.4,2.3-2.6,3.9-4.9,3.5-1.8-.3-3.2-1.7-3.5-3.4,0,0-6.6-26.2-11.8-46.9l-15.3,62.8c-2,8.1-13.2,8.7-16.2,1-.3-.2-40.9-110.9-41.1-111.2-2.2-6,.8-12.7,6.9-14.9,6.2-2.3,13.2,1.1,15.1,7.4,0,0,17.3,55.3,26.9,86.3,7.6-25.3,17.7-58.8,17.7-58.8.9-3.4,4.4-5.5,7.8-4.5,2.3.7,3.9,2.6,4.3,4.7l10.3,52c4-18,9.1-41.5,9.1-41.6.7-2.9,4.8-2.7,5.2.2,0,0,4.4,31.6,6.5,46.8l6.9-39.7-5.8,47.9Z"/>
</svg>