<?xml version="1.0" encoding="UTF-8"?>
<svg id="Layer_2" xmlns="http://www.w3.org/2000/svg" version="1.1" viewBox="0 0 187 187">
  <!-- Generator: Adobe Illustrator 29.8.1, SVG Export Plug-In . SVG Version: 2.1.1 Build 2)  -->
  <defs>
    <style>
      .st0 {
        fill: #fff;
      }
    </style>
  </defs>
  <g id="Layer_1-2">
    <g>
      <circle cx="93.5" cy="93.5" r="93.5"/>
      <path class="st0" d="M151.3,125.6c-2.1-15.1-6.5-46.8-6.5-46.8-.5-2.9-4.6-3.1-5.2-.2,0,0-5.2,23.6-9.1,41.6l-10.3-52c-.4-2.2-2-4.1-4.3-4.7-3.4-1-6.9,1-7.8,4.5,0,0-10.1,33.5-17.7,58.8-9.7-31-26.9-86.3-26.9-86.3-2-6.3-8.9-9.8-15.1-7.4-6,2.2-9.1,8.9-6.9,14.9.3.3,40.9,111,41.1,111.2,2.9,7.7,14.2,7.1,16.2-1l15.3-62.8c5.2,20.7,11.8,46.9,11.8,46.9.3,1.7,1.7,3.1,3.5,3.4,2.3.4,4.6-1.2,4.9-3.5l7.9-47.8c3.1,16.1,7.7,39.5,7.6,39.5.1.5.5.9,1.1,1,.7,0,1.3-.4,1.4-1.1l5.8-47.9-6.9,39.7h0Z"/>
    </g>
  </g>
</svg>