<?xml version="1.0" encoding="UTF-8"?>
<svg id="Layer_2" data-name="Layer 2" xmlns="http://www.w3.org/2000/svg" viewBox="0 0 186.96 186.96">
  <defs>
    <style>
      .cls-1 {
        fill: #fff;
      }

      .cls-2 {
        fill: #3b82f6;
      }
    </style>
  </defs>
  <g id="Layer_1-2" data-name="Layer 1">
    <g>
      <circle class="cls-2" cx="93.48" cy="93.48" r="93.48"/>
      <path class="cls-1" d="M151.3,125.59c-2.11-15.12-6.54-46.78-6.54-46.78-.46-2.93-4.56-3.09-5.25-.2-.02.08-5.17,23.59-9.13,41.63l-10.27-52.02c-.43-2.17-2.02-4.05-4.29-4.73-3.39-1.03-6.94,1.03-7.8,4.46,0,0-10.05,33.47-17.66,58.82-9.67-30.98-26.93-86.28-26.93-86.28-1.96-6.33-8.91-9.75-15.12-7.43-6.02,2.23-9.09,8.91-6.86,14.92.27.3,40.85,111.02,41.14,111.21,2.93,7.72,14.15,7.11,16.17-.98l15.35-62.77c5.21,20.67,11.82,46.92,11.82,46.92.35,1.71,1.7,3.11,3.52,3.41,2.34.39,4.55-1.2,4.94-3.54l7.91-47.78c3.11,16.06,7.67,39.47,7.63,39.48.1.52.52.93,1.07,1,.68.08,1.3-.4,1.39-1.09l5.83-47.94-6.93,39.7Z"/>
    </g>
  </g>
</svg>