<?xml version="1.0" encoding="UTF-8"?>
<svg id="Layer_2" data-name="Layer 2" xmlns="http://www.w3.org/2000/svg" viewBox="0 0 506 569.82">
  <defs>
    <style>
      .cls-1 {
        fill: #3b82f6;
      }
    </style>
  </defs>
  <g id="Layer_1-2" data-name="Layer 1">
    <path class="cls-1" d="M476.15,401.68c-9.1-65.1-28.16-201.48-28.16-201.48-1.98-12.62-19.65-13.32-22.6-.87-.07.33-22.28,101.57-39.33,179.26l-44.22-224.02c-1.87-9.35-8.71-17.43-18.48-20.36-14.6-4.43-29.91,4.45-33.58,19.19,0,0-43.27,144.14-76.04,253.31C172.1,273.28,97.78,35.14,97.78,35.14,89.35,7.89,59.41-6.85,32.68,3.13,6.77,12.72-6.46,41.49,3.12,67.4c1.17,1.27,175.93,478.14,177.19,478.95,12.62,33.23,60.94,30.61,69.65-4.21l66.09-270.33c22.42,89.02,50.89,202.07,50.89,202.07,1.51,7.34,7.31,13.38,15.16,14.67,10.08,1.67,19.61-5.15,21.28-15.23l34.08-205.77c13.41,69.15,33.01,169.97,32.84,170,.43,2.22,2.25,4.01,4.62,4.3,2.94.36,5.62-1.74,5.97-4.68l25.1-206.45-29.85,170.96Z"/>
  </g>
</svg>